<?xml version="1.0" encoding="utf-8"?>
<!-- Svg Vector Icons : http://www.onlinewebfonts.com/icon -->
<!DOCTYPE svg PUBLIC "-//W3C//DTD SVG 1.1//EN" "http://www.w3.org/Graphics/SVG/1.1/DTD/svg11.dtd">
<svg version="1.1" xmlns="http://www.w3.org/2000/svg" xmlns:xlink="http://www.w3.org/1999/xlink" x="0px" y="0px" viewBox="0 0 1000 1000" enable-background="new 0 0 1000 1000" xml:space="preserve">
<metadata> Svg Vector Icons : http://www.onlinewebfonts.com/icon </metadata>
<g><g transform="translate(0.000000,511.000000) scale(0.100000,-0.100000)"><path d="M5757.4,4659.3c-573.6-117.7-968.2-598.1-968.2-1176.6c2.5-529.5,399.5-1032,909.4-1149.6c406.9-95.6,857.9,41.7,1139.8,345.6c355.4,384.8,424.1,889.8,186.3,1367.8C6806.5,4485.3,6240.3,4757.3,5757.4,4659.3z M6127.6,4387.2c186.3-34.3,402-149.5,514.7-274.5c49-53.9,122.6-169.1,164.2-259.8c66.2-139.7,76-186.3,73.5-357.9c-2.4-370.1-186.3-664.3-517.2-826.1c-147.1-73.5-183.8-80.9-384.9-80.9c-196.1,0-237.8,7.3-379.9,76c-203.4,95.6-355.4,247.6-451,451c-66.2,139.7-76,186.3-73.5,367.7c0,284.3,68.6,453.5,252.4,637.3c147.1,147.1,316.2,240.2,492.7,269.6C5978,4416.6,5968.2,4416.6,6127.6,4387.2z"/><path d="M5757.4,3845.5c4.9-17.1,39.2-129.9,76-252.5c36.8-120.1,71.1-235.3,76-250c9.8-22.1-19.6-31.9-100.5-31.9c-95.6,0-112.8-7.3-112.8-49s17.2-49,122.6-49c68.6,0,122.6-9.8,122.6-24.5c0-12.3-53.9-24.5-122.6-24.5c-105.4,0-122.6-7.3-122.6-49c0-41.7,17.2-49,122.6-49c115.2,0,122.6-4.9,122.6-61.3c0-51.5,12.3-61.3,73.5-61.3s73.5,9.8,73.5,61.3c0,56.4,9.8,61.3,110.3,61.3c93.1,0,110.3,7.3,110.3,49c0,41.7-17.2,49-110.3,49c-61.3,0-110.3,12.3-110.3,24.5c0,14.7,49,24.5,110.3,24.5c93.1,0,110.3,7.4,110.3,49s-17.2,49-107.8,49h-105.4l80.9,277c46.6,149.5,83.3,277,83.3,281.9c0,2.5-31.9,4.9-68.6,4.9c-63.7,0-71.1-9.8-112.7-176.5c-24.5-98-51.5-188.7-58.8-201c-7.4-14.7-36.8,63.7-66.2,171.6c-49,186.3-53.9,193.6-129.9,201C5767.2,3874.9,5747.6,3870,5757.4,3845.5z"/><path d="M3343,3578.3c-279.4-53.9-630-304-774.6-549.1c-399.5-681.4-41.7-1566.3,713.3-1764.9c411.8-105.4,840.8,9.8,1139.8,306.4c235.3,235.3,345.6,512.3,345.6,857.9c0,338.3-115.2,600.6-367.7,840.8C4112.7,3544,3732.7,3654.3,3343,3578.3z M3764.6,3308.7c281.9-61.3,522.1-247.6,649.6-507.4c61.3-125,68.6-166.7,68.6-384.8c0-215.7-7.3-262.3-66.2-384.8c-269.6-576-1024.6-708.4-1473.2-259.8c-66.2,66.2-147.1,181.4-183.8,259.8c-58.8,122.6-66.2,169.1-66.2,384.8c0,218.2,7.3,259.8,68.6,384.8c122.6,252.5,348.1,433.9,617.7,500C3539.1,3340.5,3605.3,3340.5,3764.6,3308.7z"/><path d="M3490,2803.7c-58.8-22.1-149.5-110.3-186.3-183.8c-19.6-39.2-51.5-68.6-71.1-68.6c-49,0-46.6-63.7,0-83.3c19.6-7.4,36.8-24.5,36.8-39.2c0-12.3-17.2-24.5-36.8-24.5c-19.6,0-36.8-17.2-36.8-36.8c0-19.6,14.7-36.8,31.9-36.8c14.7,0,51.5-41.7,78.4-90.7c71.1-129.9,161.8-186.3,299.1-188.7c161.8-2.5,201,17.1,186.3,90.7c-9.8,56.4-22.1,58.8-107.9,49c-102.9-14.7-218.2,39.2-218.2,103c0,27,31.9,36.8,134.8,36.8c103,0,134.8,7.4,134.8,36.8c0,29.4-31.9,36.8-147.1,36.8c-115.2,0-147.1,7.3-147.1,36.8s31.9,36.8,147.1,36.8c115.2,0,147.1,7.3,147.1,36.8c0,29.4-31.9,36.8-134.8,36.8c-73.5,0-134.8,9.8-134.8,22.1s29.4,46.6,66.2,76c53.9,41.7,85.8,49,161.8,36.8c93.1-17.2,93.1-14.7,85.8,51.5c-7.3,66.2-14.7,71.1-129.9,76C3583.2,2816,3509.6,2811.1,3490,2803.7z"/><path d="M4823.5,1931.1l-49-132.4l232.9-14.7c406.9-24.5,715.8-166.7,1022.2-470.6c335.8-330.9,492.7-737.8,468.2-1201.1c-22.1-426.5-218.2-840.8-527-1115.3c-156.9-139.7-509.9-321.1-715.8-370.1c-188.8-41.7-544.2-36.8-735.4,12.3c-463.3,117.7-848.1,431.4-1054,860.4c-125,264.7-159.3,419.2-156.9,723.1c2.5,277,71.1,539.3,193.6,750.1l58.8,100.5l-112.8,17.1c-196.1,27-193.6,29.4-272.1-161.8c-112.8-274.5-139.7-421.6-139.7-742.7c2.5-355.4,39.2-519.7,201-845.7c98.1-198.5,147.1-267.2,348.1-468.2c201-198.6,269.6-250,468.2-348.1c326-156.9,490.2-196.1,845.7-198.5c232.9,0,333.4,9.8,485.3,53.9C6017.3-1439.4,6480.5-998.1,6691.3-378c51.5,152,68.7,259.8,78.5,480.5c14.7,367.7-29.4,585.8-196.1,926.6c-105.4,218.2-152,284.3-333.4,468.2c-345.6,348.1-732.9,534.4-1157,556.4l-208.4,12.3L4823.5,1931.1z"/><path d="M342.7,1590.4c-46.6-46.6-95.6-129.9-112.8-188.7c-39.2-149.5-95.6-755-112.8-1240.3L100-255.4L176-476C313.3-887.8,676-1684.5,884.4-2039.9c73.5-125,154.4-228,232.9-289.2c176.5-139.7,607.9-419.2,1110.4-718.2c242.7-147.1,482.9-306.4,536.8-355.4c149.5-139.7,161.8-193.7,161.8-652v-404.5h980.5h980.5v362.8c0,198.6,12.3,468.2,29.4,600.5c73.5,605.5-154.4,1152.1-713.3,1708.5c-399.6,397.1-661.8,519.7-1282,603c-166.7,22-323.6,44.1-353,49c-76,12.3-257.4,183.8-433.9,409.3C1860-378,1602.6-159.8,1296.2-20.1C984.9,119.6,698.1,48.5,619.7-186.8c-39.2-120.1,24.5-281.9,134.8-345.6c46.6-27,159.3-156.9,257.4-294.2c166.7-235.3,600.6-769.7,637.3-784.4c7.4-2.4,76,53.9,147.1,127.5l129.9,132.3l-313.8,377.5C1440.8-767.7,1257-552,1203.1-493.2c-51.5,58.8-88.2,112.8-80.9,120.1c19.6,19.6,208.4-95.6,362.8-220.6c71.1-61.3,198.5-191.2,277-289.2c240.2-299.1,357.9-421.6,507.4-527c134.8-95.6,154.4-102.9,416.7-132.4c335.8-36.8,676.5-120.1,862.8-210.8c169.1-83.3,460.8-348.1,625.1-568.7c159.3-215.7,313.8-541.7,350.5-737.8c22.1-117.7,22.1-215.7,0-416.7c-17.2-144.6-29.4-340.7-29.4-438.8v-176.5h-585.8h-585.8l-9.8,289.3c-9.8,252.5-19.6,301.5-78.4,416.7c-112.8,223.1-257.4,340.7-823.6,679c-612.8,365.2-985.4,610.4-1093.3,720.7c-85.8,88.2-394.6,701-637.3,1264.8C521.6-348.6,511.8-316.7,504.5-108.3c-9.8,218.2,31.9,929,66.2,1157c17.2,110.3,19.6,112.7,34.3,44.1c9.8-39.2,39.2-277,66.2-524.6c27-250,53.9-455.9,58.8-460.8c14.7-14.7,316.2,68.6,343.2,93.2c27,24.5-17.2,522.1-73.5,865.3c-63.7,382.4-205.9,573.6-448.6,598.1C435.8,1673.7,421.1,1668.8,342.7,1590.4z"/><path d="M9324,1624.7c-129.9-63.7-235.3-223.1-279.5-416.7c-44.1-198.5-125-941.3-107.8-987.9c12.2-31.9,333.3-134.8,352.9-112.8c4.9,4.9,31.9,220.6,58.8,480.4c46.6,426.5,90.7,671.6,98,529.5c0-27,17.2-225.5,36.8-441.2c53.9-610.4,49-904.5-22.1-1093.2C9265.1-934.4,8804.3-1883,8694-1995.8c-115.2-112.7-723.1-504.9-1407-902c-259.8-152-402-289.2-502.5-487.8c-58.8-115.2-68.7-164.2-78.4-419.1l-9.8-286.8h-583.4h-580.9l-19.6,323.6c-39.2,585.9-29.4,745.2,49,938.8c122.6,304,257.4,500.1,514.8,759.9c171.6,171.6,286.8,264.7,389.8,313.8c191.2,93.2,529.5,176.5,867.7,213.3c262.3,29.4,281.9,36.8,416.7,132.4c149.5,105.4,267.2,228,507.4,527c78.4,98,205.9,228,277,289.2c154.4,125,343.2,240.2,362.8,220.6c7.4-7.4-29.4-61.3-80.9-120.1c-53.9-58.8-237.8-274.5-409.4-480.4l-313.8-377.5l129.9-132.3c71.1-73.5,137.3-129.9,147.1-127.5c36.8,14.7,502.5,588.3,639.8,786.8c80.9,120.1,191.2,247.6,242.7,281.9C9551.9-333.9,9395.1,51,9010.2,51c-328.5,0-762.3-313.8-1210.9-877.5c-178.9-223-313.7-323.6-438.8-323.6c-152,0-634.9-90.7-826.1-156.9c-284.3-98-416.7-183.8-686.3-441.2c-512.3-495.2-794.2-1083.5-755-1578.6c9.8-103,22.1-402,29.5-659.4l14.7-473.1h978.1h978v426.5v426.5l80.9,117.7c68.6,100.5,156.9,161.8,637.3,453.5c674.1,406.9,1022.2,639.8,1154.6,769.7c56.4,53.9,159.3,205.9,232.9,338.3c149.5,274.6,468.2,970.7,605.4,1328.6l95.6,245.1l-2.4,429c-2.5,443.7-63.8,1164.4-110.3,1335.9c-14.7,51.5-63.7,132.4-107.9,176.5C9583.8,1683.5,9463.7,1695.8,9324,1624.7z"/><path d="M4813.7,901.6c0-41.7-24.5-68.6-88.2-98.1c-98.1-49-178.9-198.5-181.4-333.4c0-183.8,51.5-277,274.5-495.2c196.1-188.8,215.7-218.2,215.7-301.5c0-129.9-36.8-186.3-120.1-186.3c-88.2,0-125,44.1-142.2,171.6c-14.7,98-14.7,98-120.1,98h-107.9v-115.2c0-156.9,63.7-277,176.5-338.3c66.2-34.3,93.1-66.2,93.1-103c0-49,12.3-56.4,98-56.4s98.1,7.3,98.1,56.4c0,41.7,24.5,68.7,85.8,98c125,58.8,183.8,171.6,183.8,343.2c0,198.6-44.1,284.4-252.5,485.4c-210.8,198.5-254.9,279.4-220.6,397.1c19.6,71.1,29.4,78.4,117.7,78.4c95.6,0,98.1-2.5,120.1-103c24.5-102.9,24.5-105.4,129.9-105.4h105.4V502c0,129.9-78.4,257.4-188.8,308.9c-53.9,24.5-80.9,53.9-80.9,93.1c0,46.6-12.3,53.9-98.1,53.9S4813.7,950.6,4813.7,901.6z"/></g></g>
</svg>