<?xml version="1.0" encoding="utf-8"?>
<!-- Svg Vector Icons : http://www.onlinewebfonts.com/icon -->
<!DOCTYPE svg PUBLIC "-//W3C//DTD SVG 1.1//EN" "http://www.w3.org/Graphics/SVG/1.1/DTD/svg11.dtd">
<svg version="1.1" xmlns="http://www.w3.org/2000/svg" xmlns:xlink="http://www.w3.org/1999/xlink" x="0px" y="0px" viewBox="0 0 1000 1000" enable-background="new 0 0 1000 1000" xml:space="preserve">
<metadata> Svg Vector Icons : http://www.onlinewebfonts.com/icon </metadata>
<g><g transform="translate(0.000000,512.000000) scale(0.100000,-0.100000)"><path d="M4891.7,5003.2c-56.1-23.2-129.6-88.9-160.5-143.1c-13.5-21.3-27.1-162.5-32.9-328.8l-9.7-290.1l-67.7-3.9c-558.9-38.7-1121.6-170.2-1599.3-373.2c-1110-477.7-1972.5-1429.1-2367-2610.6C527.1,870.6,494.3,673.4,496.2,296.3c1.9-299.7,42.5-709.7,73.5-740.6c5.8-5.8,239.8,216.6,518.3,495c278.5,278.5,516.3,506.7,526,506.7c11.6,0,237.9-218.5,502.8-483.5l483.5-483.5h-663.3h-661.4v-2185.2V-4780h3780.6h3780.6v164.4c1.9,90.9,1.9,1048.1,1.9,2127.2s0,1989.9-1.9,2020.8v58h-719.4H7396l483.5,483.5c264.9,266.9,491.2,483.5,502.8,483.5s249.5-230.1,531.8-512.5c282.3-282.4,518.3-512.5,524.1-512.5c30.9,0,65.8,408,65.8,763.9c0,442.8-17.4,549.2-156.6,976.6c-203,616.9-586,1237.6-1061.7,1713.3c-711.6,711.6-1709.5,1158.4-2776.9,1241.5l-181.8,13.5l-9.7,290.1c-9.7,317.1-19.3,346.1-127.6,427.4C5114.1,5016.7,4973,5038,4891.7,5003.2z M4220.7,226.6L4563-104v-152.8v-152.8h-835.4h-837.3l483.5,483.5c264.9,266.9,487.3,483.5,493.1,483.5S4033.1,408.4,4220.7,226.6z M6622.5,73.9L7106-409.6h-827.7h-825.8V-251v160.5l323,322.9c177.9,179.8,332.6,324.9,344.2,324.9C6131.3,557.3,6357.6,340.7,6622.5,73.9z M4930.4-1009.1v-154.7h-112.2c-334.6,0-632.4-185.7-740.7-460.3c-38.7-92.8-44.5-147-44.5-352c-1.9-208.8,3.9-257.2,42.5-352c106.4-264.9,381-442.8,754.2-489.3l100.6-13.5v-375.2V-3581h-377.1h-377.1v-222.4v-222.4h377.1h377.1v-154.7v-154.7H3335H1739.6v1740.4v1740.4H3335h1595.4V-1009.1z M8391.9-2594.8v-1740.4H6806.2c-1531.6,0-1585.7,1.9-1585.7,36.7c0,19.3,5.8,89,11.6,154.7l13.5,117.9h65.8c98.6,0,288.2,52.2,410,116c154.7,77.3,257.2,174,326.8,305.5c280.4,524.1-85.1,1197-673,1235.7l-154.7,11.6v373.2v375.2h309.4h309.4v222.4v222.4h-299.7h-299.7v154.7v154.7h1576.1h1576.1V-2594.8z M4930.4-1985.6v-377.1h-65.7c-135.4,0-295.9,87-350,191.4c-135.4,263,54.1,553.1,363.6,560.8l52.2,2V-1985.6z M5485.4-2861.7c137.3-71.6,199.2-176,199.2-332.6c0-83.2-56.1-208.8-117.9-264.9c-58-52.2-193.4-102.5-280.4-102.5h-65.8v379v381l94.8-11.6C5367.5-2819.1,5444.8-2842.3,5485.4-2861.7z"/><path d="M2029.7-2672.1v-1508.4h903.1h903.1l-79.3,83.2c-437,456.4-597.5,1419.4-363.6,2193c63.8,210.8,199.2,471.8,317.1,620.7l98.6,119.9h-889.6h-889.6V-2672.1z M2803.2-2672.1v-773.5h-251.4h-251.4v773.5v773.5h251.4h251.4V-2672.1z"/><path d="M6380.8-1254.7c413.8-471.9,560.8-1374.9,348.1-2152.3c-59.9-218.5-214.6-514.4-340.3-653.6l-108.3-119.9h901.2h901.1v1508.4v1508.4h-891.5h-891.5L6380.8-1254.7z M7811.8-2672.1v-773.5h-251.4H7309v773.5v773.5h251.4h251.4V-2672.1z"/></g></g>
</svg>