<?xml version="1.0" encoding="utf-8"?>
<!-- Svg Vector Icons : http://www.onlinewebfonts.com/icon -->
<!DOCTYPE svg PUBLIC "-//W3C//DTD SVG 1.1//EN" "http://www.w3.org/Graphics/SVG/1.1/DTD/svg11.dtd">
<svg version="1.1" xmlns="http://www.w3.org/2000/svg" xmlns:xlink="http://www.w3.org/1999/xlink" x="0px" y="0px" viewBox="0 0 1000 1000" enable-background="new 0 0 1000 1000" xml:space="preserve">
<metadata> Svg Vector Icons : http://www.onlinewebfonts.com/icon </metadata>
<g><g transform="translate(0.000000,512.000000) scale(0.100000,-0.100000)"><path d="M5955.1,4960.1c-93.8-45.9-176.1-114.8-352.2-292.9c-126.3-126.3-281.4-302.4-344.5-388.5c-63.2-84.2-122.5-155-130.2-157c-7.7,0-112.9,65.1-233.5,143.6c-782.9,516.8-1326.4,631.6-1523.6,319.7c-145.5-229.7-68.9-528.3,246.9-947.5c179.9-239.3,614.4-687.2,966.6-993.4c143.6-126.3,262.2-231.6,262.2-233.5c0-1.9-91.9-5.7-204.8-7.7c-195.2-3.8-208.6-7.7-248.8-53.6c-57.4-63.2-55.5-145.5,1.9-212.5c45.9-53.6,49.8-53.6,304.3-63.2l258.4-9.6l-277.5-344.5C3928.1,785.5,3342.4-58.6,3055.3-615.6c-63.2-126.3-120.6-239.3-124.4-252.7c-5.7-15.3-67-7.7-218.2,24.9c-114.8,26.8-210.5,49.8-212.5,51.7c-1.9,1.9,9.6,101.4,26.8,218.2c34.5,250.7,26.8,281.4-91.9,367.5C2230.3-58.6,1658,52.5,846.5,102.2c-583.8,34.5-681.4,24.9-725.4-70.8C105.7-1.1,100-588.8,100-2014.7v-2002.1l55.5-55.5l55.5-55.5h692.9c578.1,0,700.5,3.8,746.5,28.7c55.5,28.7,78.5,80.4,153.1,373.2c13.4,47.9,26.8,91.9,30.6,99.5c3.8,5.7,754.1-237.3,1667.2-541.7c913-304.3,1730.3-568.5,1814.5-585.7c513-103.4,1102.5,90,3292.2,1079.5c758,342.6,1221.2,562.7,1249.9,593.4c23,24.9,42.1,68.9,42.1,95.7c0,74.6-107.2,245-245,392.4l-124.4,130.2l26.8,187.6c38.3,279.5,30.6,555.1-19.1,750.3c-134,507.2-541.7,1263.3-1175.2,2182c-149.3,214.4-773.3,1060.4-1014.5,1370.5l-36.4,45.9h229.7c271.8,0,342.6,19.1,379,105.3c30.6,74.6,5.8,170.4-49.8,201c-19.1,11.5-116.7,19.1-218.2,19.1c-99.5,0-185.6,5.7-189.5,15.3c-5.7,7.7,82.3,91.9,193.3,185.7c273.7,233.5,771.4,729.3,930.2,928.3c273.7,344.5,394.3,593.4,394.3,809.6c-1.9,216.3-116.7,373.2-306.3,413.4c-277.5,59.3-771.4-134-1345.6-526.4c-82.3-57.4-157-103.4-164.6-103.4c-7.6,0-84.2,90-170.3,199.1c-285.2,357.9-572.3,618.2-748.4,677.6C6144.6,5032.8,6087.2,5025.2,5955.1,4960.1z M6236.5,4640.5c112.9-82.3,365.6-352.2,541.7-576.1c277.5-356,266-344.5,331.1-344.5c44,0,137.8,53.6,359.8,201c560.8,379,1083.3,601,1167.6,497.7c44-53.6,13.4-204.8-74.7-357.9c-208.6-363.7-805.8-974.3-1473.8-1506.4l-191.4-151.2h-756.1h-754.1l-227.8,183.7c-449.8,363.7-936,825-1192.5,1133.1c-302.4,365.6-424.9,683.3-275.6,719.7c156.9,40.2,758-248.8,1251.8-602.9c122.5-86.1,179.9-116.8,227.8-116.8c72.7,0,78.5,5.7,308.2,306.3c264.1,346.5,583.8,669.9,658.4,669.9C6150.3,4696,6196.3,4671.1,6236.5,4640.5z M7130.4,1773.2C8179.2,435.3,8946.8-772.5,9170.8-1440.5c80.4-237.3,99.5-398.1,78.5-620.2c-9.6-99.5-19.1-191.4-19.1-204.8c0-15.3-32.5-11.5-107.2,13.4c-162.7,57.4-400,80.4-560.8,57.4c-74.6-9.6-449.8-97.6-834.5-193.3c-384.7-97.6-702.5-172.3-708.2-168.4c-3.8,5.7-19.1,68.9-36.4,143.6c-28.7,143.6-97.6,298.6-178,405.8l-45.9,61.3l45.9,63.2c97.6,130.2,134,227.8,143.6,386.6c9.6,181.8-13.4,281.4-97.6,403.9c-80.4,122.5-220.1,225.9-396.2,292.9l-143.6,55.5l-5.7,413.4c-3.8,398.1-3.8,413.4,32.5,413.4c99.5,0,287.1-214.4,289-329.2c0-26.8,23-76.6,49.8-109.1c61.3-72.7,149.3-80.4,227.8-17.2c49.8,38.3,51.7,47.9,44,157C6931.3-6.9,6808.8,180.7,6604,314.7c-61.3,38.3-155,82.3-206.7,95.7l-95.7,24.9v120.6c0,103.4-7.7,130.2-47.9,168.4c-68.9,70.8-164.6,65.1-227.8-11.5c-40.2-47.9-49.8-78.5-49.8-170.4c0-111,0-111-61.3-124.4c-168.4-36.4-359.8-170.3-461.3-319.7c-135.9-201-162.7-449.8-70.8-660.3c72.7-170.4,285.2-340.7,513-407.7l80.4-24.9v-285.2c0-155-3.8-283.3-9.6-283.3c-24.9,0-2698.8,599.1-2706.5,604.8c-26.8,24.9,246.9,503.4,535.9,936c356,535.9,926.4,1290.1,1481.5,1956.2l114.8,139.7h750.3H6893L7130.4,1773.2z M5976.2-280.6c0-296.7-5.7-363.7-26.8-363.7c-38.3,0-204.8,116.8-246.9,174.2c-101.4,139.7-36.4,382.8,134,493.8c49.8,32.5,99.5,59.3,114.8,59.3C5970.4,83.1,5976.2,8.4,5976.2-280.6z M789.1-223.2c610.6-38.3,1037.4-95.7,1293.9-174.2c112.9-34.5,122.5-42.1,122.5-93.8c0-84.2-84.2-564.6-172.3-976.2C1926-1965,1598.7-3264.6,1571.9-3297.2c-11.5-13.4-24.9-63.2-28.7-107.2c-5.7-45.9-28.7-151.2-51.7-235.4l-44-153.1l-511-5.7l-511.1-3.8v1799.2c0,1426,5.7,1799.2,24.9,1799.2C461.8-204,614.9-213.6,789.1-223.2z M6483.4-1180.2c44-30.6,95.7-86.1,112.9-122.5c44-93.8,38.3-235.4-13.4-325.4c-61.3-107.2-84.2-116.8-189.5-68.9l-91.9,40.2v279.5v277.5l51.7-11.5C6380-1119,6439.4-1149.6,6483.4-1180.2z M4286.1-1526.7c1307.3-289,1852.8-419.2,1958.1-461.3c260.3-109.1,402-292.9,432.6-562.7l11.5-99.5l-283.3-68.9c-164.6-40.2-333.1-68.9-398.1-68.9c-67,0-509.1,78.5-1075.7,191.4C4332-2476,3949.2-2409,3918.6-2416.7c-105.3-26.8-143.6-181.8-61.3-264.2c36.4-36.3,179.9-70.8,1027.9-239.3c951.3-191.4,991.5-197.1,1177.1-187.6c164.6,7.7,350.3,49.8,1339.8,300.5c985.7,248.8,1169.5,289,1301.6,290.9c166.5,1.9,323.5-34.5,472.8-111c90-45.9,340.7-264.2,321.6-281.4c-5.7-3.8-505.3-231.6-1110.2-507.2c-1500.6-677.6-2168.6-939.8-2593.6-1010.6c-327.3-55.5-306.3-61.3-2176.3,564.6C2705-3557.5,1949-3301,1937.5-3295.2c-11.5,7.7-15.3,19.1-9.6,26.8c30.6,49.8,400,1590.6,488.1,2036.6c11.5,59.3,30.6,109.1,40.2,109.1S3288.8-1304.6,4286.1-1526.7z"/></g></g>
</svg>